# xmcd CD database file
#
# Track frame offsets:
#	150
#	16655
#	32865
#	45364
#	65997
#	81677
#	94407
#	111185
#	125322
#	139862
#	172997
#	185275
#	201730
#	219482
#	243557
#	259492
#	282502
#	298032
#
# Disc length: 4220 seconds
#
# Revision: 0
# Processed by: cddbd v1.5.2PL0 Copyright (c) Steve Scherf et al.
# Submitted via: CDex 1.51
#
DISCID=21107a12
DTITLE=Los Dementes - Los Dementes
DYEAR=1900
DGENRE=Salsa
TTITLE0=Vengo de Oriente
TTITLE1=Esta Navidad
TTITLE2=Mi Deuda de Amor
TTITLE3=La Llorona
TTITLE4=La Situacion
TTITLE5=La Cumbia de Rosa
TTITLE6=Lo que el Abuelo Cantaba
TTITLE7=El Perico
TTITLE8=Muchacha Zanahoria
TTITLE9=Justo Brito y Juan Tabare
TTITLE10=Muchacho Barrigon
TTITLE11=Pa´ el  23
TTITLE12=Cosasa Que Pasan
TTITLE13=Golpes de Pecho
TTITLE14=Hierro
TTITLE15=Reproche
TTITLE16=Todo de Mi
TTITLE17=Chevere
EXTD=
EXTT0=
EXTT1=
EXTT2=
EXTT3=
EXTT4=
EXTT5=
EXTT6=
EXTT7=
EXTT8=
EXTT9=
EXTT10=
EXTT11=
EXTT12=
EXTT13=
EXTT14=
EXTT15=
EXTT16=
EXTT17=
PLAYORDER=
